<svg width="938" height="150" viewBox="0 0 938 150" fill="none" xmlns="http://www.w3.org/2000/svg">
<path d="M175.631 65H156.671C155.911 65 155.351 64.84 154.991 64.52C154.671 64.16 154.511 63.6 154.511 62.84V55.82C154.511 55.06 154.671 54.52 154.991 54.2C155.351 53.84 155.911 53.66 156.671 53.66H172.811C173.331 53.66 173.711 53.5 173.951 53.18C174.231 52.82 174.371 52.4 174.371 51.92C174.371 51.24 174.231 50.74 173.951 50.42C173.711 50.1 173.331 49.92 172.811 49.88L163.811 48.62C161.011 48.22 158.751 47.3 157.031 45.86C155.351 44.42 154.511 42.02 154.511 38.66V32.36C154.511 28.96 155.611 26.36 157.811 24.56C160.011 22.72 163.051 21.8 166.931 21.8H183.731C184.491 21.8 185.031 21.98 185.351 22.34C185.711 22.66 185.891 23.2 185.891 23.96V31.1C185.891 31.86 185.711 32.42 185.351 32.78C185.031 33.1 184.491 33.26 183.731 33.26H169.751C169.231 33.26 168.831 33.44 168.551 33.8C168.271 34.12 168.131 34.54 168.131 35.06C168.131 35.58 168.271 36.02 168.551 36.38C168.831 36.74 169.231 36.94 169.751 36.98L178.691 38.18C181.491 38.58 183.751 39.5 185.471 40.94C187.191 42.38 188.051 44.78 188.051 48.14V54.44C188.051 57.84 186.931 60.46 184.691 62.3C182.491 64.1 179.471 65 175.631 65ZM224.615 65H196.775C196.015 65 195.455 64.84 195.095 64.52C194.775 64.16 194.615 63.6 194.615 62.84V23.96C194.615 23.2 194.775 22.66 195.095 22.34C195.455 21.98 196.015 21.8 196.775 21.8H224.615C225.375 21.8 225.915 21.98 226.235 22.34C226.595 22.66 226.775 23.2 226.775 23.96V30.98C226.775 31.74 226.595 32.3 226.235 32.66C225.915 32.98 225.375 33.14 224.615 33.14H208.055V37.76H219.755C220.515 37.76 221.055 37.94 221.375 38.3C221.735 38.62 221.915 39.16 221.915 39.92V46.34C221.915 47.1 221.735 47.66 221.375 48.02C221.055 48.34 220.515 48.5 219.755 48.5H208.055V53.66H224.615C225.375 53.66 225.915 53.84 226.235 54.2C226.595 54.52 226.775 55.06 226.775 55.82V62.84C226.775 63.6 226.595 64.16 226.235 64.52C225.915 64.84 225.375 65 224.615 65ZM266.572 65H236.032C235.272 65 234.712 64.84 234.352 64.52C234.032 64.16 233.872 63.6 233.872 62.84V23.96C233.872 23.2 234.032 22.66 234.352 22.34C234.712 21.98 235.272 21.8 236.032 21.8H245.332C246.092 21.8 246.632 21.98 246.952 22.34C247.312 22.66 247.492 23.2 247.492 23.96V53.66H255.712V43.94C255.712 43.18 255.872 42.64 256.192 42.32C256.552 41.96 257.112 41.78 257.872 41.78H266.572C267.332 41.78 267.872 41.96 268.192 42.32C268.552 42.64 268.732 43.18 268.732 43.94V62.84C268.732 63.6 268.552 64.16 268.192 64.52C267.872 64.84 267.332 65 266.572 65ZM287.051 65H277.751C276.991 65 276.431 64.84 276.071 64.52C275.751 64.16 275.591 63.6 275.591 62.84V23.96C275.591 23.2 275.751 22.66 276.071 22.34C276.431 21.98 276.991 21.8 277.751 21.8H304.511C305.271 21.8 305.811 21.98 306.131 22.34C306.491 22.66 306.671 23.2 306.671 23.96V31.1C306.671 31.86 306.491 32.42 306.131 32.78C305.811 33.1 305.271 33.26 304.511 33.26H289.211V39.5H299.651C300.411 39.5 300.951 39.68 301.271 40.04C301.631 40.36 301.811 40.9 301.811 41.66V48.86C301.811 49.62 301.631 50.18 301.271 50.54C300.951 50.86 300.411 51.02 299.651 51.02H289.211V62.84C289.211 63.6 289.031 64.16 288.671 64.52C288.351 64.84 287.811 65 287.051 65ZM358.272 65H327.732C326.972 65 326.412 64.84 326.052 64.52C325.732 64.16 325.572 63.6 325.572 62.84V23.96C325.572 23.2 325.732 22.66 326.052 22.34C326.412 21.98 326.972 21.8 327.732 21.8H337.032C337.792 21.8 338.332 21.98 338.652 22.34C339.012 22.66 339.192 23.2 339.192 23.96V53.66H347.412V43.94C347.412 43.18 347.572 42.64 347.892 42.32C348.252 41.96 348.812 41.78 349.572 41.78H358.272C359.032 41.78 359.572 41.96 359.892 42.32C360.252 42.64 360.432 43.18 360.432 43.94V62.84C360.432 63.6 360.252 64.16 359.892 64.52C359.572 64.84 359.032 65 358.272 65ZM403.89 53.66C403.89 55.5 403.61 57.18 403.05 58.7C402.53 60.18 401.57 61.46 400.17 62.54C398.81 63.58 396.91 64.4 394.47 65C392.07 65.6 389.01 65.9 385.29 65.9C381.57 65.9 378.49 65.6 376.05 65C373.61 64.4 371.69 63.58 370.29 62.54C368.93 61.46 367.97 60.18 367.41 58.7C366.89 57.18 366.63 55.5 366.63 53.66V33.2C366.63 31.36 366.89 29.7 367.41 28.22C367.97 26.7 368.93 25.4 370.29 24.32C371.69 23.24 373.61 22.4 376.05 21.8C378.49 21.2 381.57 20.9 385.29 20.9C389.01 20.9 392.07 21.2 394.47 21.8C396.91 22.4 398.81 23.24 400.17 24.32C401.57 25.4 402.53 26.7 403.05 28.22C403.61 29.7 403.89 31.36 403.89 33.2V53.66ZM380.25 51.5C380.25 52.3 380.55 52.98 381.15 53.54C381.75 54.06 383.13 54.32 385.29 54.32C387.45 54.32 388.83 54.06 389.43 53.54C390.03 52.98 390.33 52.3 390.33 51.5V35.36C390.33 34.6 390.03 33.96 389.43 33.44C388.83 32.88 387.45 32.6 385.29 32.6C383.13 32.6 381.75 32.88 381.15 33.44C380.55 33.96 380.25 34.6 380.25 35.36V51.5ZM437.089 65H421.489C420.729 65 420.089 64.86 419.569 64.58C419.089 64.3 418.709 63.78 418.429 63.02L412.549 48.32C412.189 47.44 411.889 46.68 411.649 46.04C411.409 45.36 411.209 44.72 411.049 44.12C410.889 43.52 410.769 42.9 410.689 42.26C410.649 41.58 410.629 40.76 410.629 39.8V23.96C410.629 23.2 410.789 22.66 411.109 22.34C411.469 21.98 412.029 21.8 412.789 21.8H422.329C423.089 21.8 423.669 21.98 424.069 22.34C424.469 22.66 424.669 23.2 424.669 23.96V40.52C424.669 40.92 424.709 41.32 424.789 41.72C424.869 42.12 424.989 42.54 425.149 42.98L427.969 51.38C428.089 51.78 428.229 52.06 428.389 52.22C428.549 52.34 428.789 52.4 429.109 52.4H429.769C430.089 52.4 430.329 52.34 430.489 52.22C430.649 52.06 430.789 51.78 430.909 51.38L433.729 42.92C433.889 42.48 434.009 42.06 434.089 41.66C434.169 41.26 434.209 40.86 434.209 40.46V23.96C434.209 23.2 434.369 22.66 434.689 22.34C435.049 21.98 435.609 21.8 436.369 21.8H445.789C446.549 21.8 447.089 21.98 447.409 22.34C447.769 22.66 447.949 23.2 447.949 23.96V39.8C447.949 40.76 447.909 41.58 447.829 42.26C447.789 42.9 447.689 43.52 447.529 44.12C447.369 44.72 447.169 45.36 446.929 46.04C446.689 46.68 446.389 47.44 446.029 48.32L440.149 63.02C439.869 63.78 439.469 64.3 438.949 64.58C438.469 64.86 437.849 65 437.089 65ZM485.357 65H457.517C456.757 65 456.197 64.84 455.837 64.52C455.517 64.16 455.357 63.6 455.357 62.84V23.96C455.357 23.2 455.517 22.66 455.837 22.34C456.197 21.98 456.757 21.8 457.517 21.8H485.357C486.117 21.8 486.657 21.98 486.977 22.34C487.337 22.66 487.517 23.2 487.517 23.96V30.98C487.517 31.74 487.337 32.3 486.977 32.66C486.657 32.98 486.117 33.14 485.357 33.14H468.797V37.76H480.497C481.257 37.76 481.797 37.94 482.117 38.3C482.477 38.62 482.657 39.16 482.657 39.92V46.34C482.657 47.1 482.477 47.66 482.117 48.02C481.797 48.34 481.257 48.5 480.497 48.5H468.797V53.66H485.357C486.117 53.66 486.657 53.84 486.977 54.2C487.337 54.52 487.517 55.06 487.517 55.82V62.84C487.517 63.6 487.337 64.16 486.977 64.52C486.657 64.84 486.117 65 485.357 65ZM540.791 65H510.251C509.491 65 508.931 64.84 508.571 64.52C508.251 64.16 508.091 63.6 508.091 62.84V23.96C508.091 23.2 508.251 22.66 508.571 22.34C508.931 21.98 509.491 21.8 510.251 21.8H519.551C520.311 21.8 520.851 21.98 521.171 22.34C521.531 22.66 521.711 23.2 521.711 23.96V53.66H529.931V43.94C529.931 43.18 530.091 42.64 530.411 42.32C530.771 41.96 531.331 41.78 532.091 41.78H540.791C541.551 41.78 542.091 41.96 542.411 42.32C542.771 42.64 542.951 43.18 542.951 43.94V62.84C542.951 63.6 542.771 64.16 542.411 64.52C542.091 64.84 541.551 65 540.791 65ZM579.81 65H551.97C551.21 65 550.65 64.84 550.29 64.52C549.97 64.16 549.81 63.6 549.81 62.84V23.96C549.81 23.2 549.97 22.66 550.29 22.34C550.65 21.98 551.21 21.8 551.97 21.8H579.81C580.57 21.8 581.11 21.98 581.43 22.34C581.79 22.66 581.97 23.2 581.97 23.96V30.98C581.97 31.74 581.79 32.3 581.43 32.66C581.11 32.98 580.57 33.14 579.81 33.14H563.25V37.76H574.95C575.71 37.76 576.25 37.94 576.57 38.3C576.93 38.62 577.11 39.16 577.11 39.92V46.34C577.11 47.1 576.93 47.66 576.57 48.02C576.25 48.34 575.71 48.5 574.95 48.5H563.25V53.66H579.81C580.57 53.66 581.11 53.84 581.43 54.2C581.79 54.52 581.97 55.06 581.97 55.82V62.84C581.97 63.6 581.79 64.16 581.43 64.52C581.11 64.84 580.57 65 579.81 65ZM609.468 65H599.748C598.988 65 598.428 64.84 598.068 64.52C597.748 64.16 597.588 63.6 597.588 62.84V33.38H588.768C588.008 33.38 587.448 33.22 587.088 32.9C586.768 32.54 586.608 31.98 586.608 31.22V23.96C586.608 23.2 586.768 22.66 587.088 22.34C587.448 21.98 588.008 21.8 588.768 21.8H620.448C621.208 21.8 621.748 21.98 622.068 22.34C622.428 22.66 622.608 23.2 622.608 23.96V31.22C622.608 31.98 622.428 32.54 622.068 32.9C621.748 33.22 621.208 33.38 620.448 33.38H611.628V62.84C611.628 63.6 611.448 64.16 611.088 64.52C610.768 64.84 610.228 65 609.468 65ZM648.843 65H639.123C638.363 65 637.803 64.84 637.443 64.52C637.123 64.16 636.963 63.6 636.963 62.84V33.38H628.143C627.383 33.38 626.823 33.22 626.463 32.9C626.143 32.54 625.983 31.98 625.983 31.22V23.96C625.983 23.2 626.143 22.66 626.463 22.34C626.823 21.98 627.383 21.8 628.143 21.8H659.823C660.583 21.8 661.123 21.98 661.443 22.34C661.803 22.66 661.983 23.2 661.983 23.96V31.22C661.983 31.98 661.803 32.54 661.443 32.9C661.123 33.22 660.583 33.38 659.823 33.38H651.003V62.84C651.003 63.6 650.823 64.16 650.463 64.52C650.143 64.84 649.603 65 648.843 65ZM697.818 65H669.978C669.218 65 668.658 64.84 668.298 64.52C667.978 64.16 667.818 63.6 667.818 62.84V23.96C667.818 23.2 667.978 22.66 668.298 22.34C668.658 21.98 669.218 21.8 669.978 21.8H697.818C698.578 21.8 699.118 21.98 699.438 22.34C699.798 22.66 699.978 23.2 699.978 23.96V30.98C699.978 31.74 699.798 32.3 699.438 32.66C699.118 32.98 698.578 33.14 697.818 33.14H681.258V37.76H692.958C693.718 37.76 694.258 37.94 694.578 38.3C694.938 38.62 695.118 39.16 695.118 39.92V46.34C695.118 47.1 694.938 47.66 694.578 48.02C694.258 48.34 693.718 48.5 692.958 48.5H681.258V53.66H697.818C698.578 53.66 699.118 53.84 699.438 54.2C699.798 54.52 699.978 55.06 699.978 55.82V62.84C699.978 63.6 699.798 64.16 699.438 64.52C699.118 64.84 698.578 65 697.818 65ZM720.636 32.6V40.28H725.136C726.176 40.28 726.876 40.02 727.236 39.5C727.596 38.94 727.776 38.26 727.776 37.46V35.42C727.776 34.62 727.596 33.96 727.236 33.44C726.876 32.88 726.176 32.6 725.136 32.6H720.636ZM718.476 65H709.236C708.476 65 707.916 64.84 707.556 64.52C707.236 64.16 707.076 63.6 707.076 62.84V23.96C707.076 23.2 707.236 22.66 707.556 22.34C707.916 21.98 708.476 21.8 709.236 21.8H729.216C733.696 21.8 736.776 22.74 738.456 24.62C740.176 26.46 741.036 28.86 741.036 31.82V34.58C741.036 36.26 740.776 37.7 740.256 38.9C739.776 40.06 738.916 40.9 737.676 41.42C739.836 41.66 741.576 42.54 742.896 44.06C744.256 45.58 744.936 47.6 744.936 50.12V62.84C744.936 63.6 744.756 64.16 744.396 64.52C744.076 64.84 743.536 65 742.776 65H733.476C732.716 65 732.156 64.84 731.796 64.52C731.476 64.16 731.316 63.6 731.316 62.84V53.66C731.316 52.78 731.136 52.14 730.776 51.74C730.456 51.3 729.876 51.08 729.036 51.08H720.636V62.84C720.636 63.6 720.456 64.16 720.096 64.52C719.776 64.84 719.236 65 718.476 65ZM771.705 65H752.745C751.985 65 751.425 64.84 751.065 64.52C750.745 64.16 750.585 63.6 750.585 62.84V55.82C750.585 55.06 750.745 54.52 751.065 54.2C751.425 53.84 751.985 53.66 752.745 53.66H768.885C769.405 53.66 769.785 53.5 770.025 53.18C770.305 52.82 770.445 52.4 770.445 51.92C770.445 51.24 770.305 50.74 770.025 50.42C769.785 50.1 769.405 49.92 768.885 49.88L759.885 48.62C757.085 48.22 754.825 47.3 753.105 45.86C751.425 44.42 750.585 42.02 750.585 38.66V32.36C750.585 28.96 751.685 26.36 753.885 24.56C756.085 22.72 759.125 21.8 763.005 21.8H779.805C780.565 21.8 781.105 21.98 781.425 22.34C781.785 22.66 781.965 23.2 781.965 23.96V31.1C781.965 31.86 781.785 32.42 781.425 32.78C781.105 33.1 780.565 33.26 779.805 33.26H765.825C765.305 33.26 764.905 33.44 764.625 33.8C764.345 34.12 764.205 34.54 764.205 35.06C764.205 35.58 764.345 36.02 764.625 36.38C764.905 36.74 765.305 36.94 765.825 36.98L774.765 38.18C777.565 38.58 779.825 39.5 781.545 40.94C783.265 42.38 784.125 44.78 784.125 48.14V54.44C784.125 57.84 783.005 60.46 780.765 62.3C778.565 64.1 775.545 65 771.705 65Z" fill="#DF49D9"/>
<ellipse cx="6.48515" cy="10.4751" rx="6.48515" ry="10.4751" transform="matrix(0.683937 -0.729541 0.612113 0.790771 835 42.4624)" fill="#DF49D9"/>
<ellipse cx="6.48514" cy="10.4751" rx="6.48514" ry="10.4751" transform="matrix(0.683944 0.729534 -0.612106 0.790776 854.907 33)" fill="#DF49D9"/>
<rect opacity="0.8" x="809.481" y="14.6301" width="79.0382" height="54.8699" rx="6.5" stroke="#DF49D9" stroke-width="3"/>
<path d="M845.449 47.441L813.084 26.3313C807.669 22.7994 810.17 14.387 816.635 14.387L881.365 14.387C887.83 14.387 890.331 22.7994 884.916 26.3313L852.551 47.441C850.393 48.8486 847.607 48.8486 845.449 47.441Z" stroke="#DF49D9" stroke-width="3"/>
<ellipse cx="6.48515" cy="10.4751" rx="6.48515" ry="10.4751" transform="matrix(0.683937 -0.729541 0.612113 0.790771 68 42.4624)" fill="#DF49D9"/>
<ellipse cx="6.48514" cy="10.4751" rx="6.48514" ry="10.4751" transform="matrix(0.683944 0.729534 -0.612106 0.790776 87.9067 33)" fill="#DF49D9"/>
<rect opacity="0.8" x="42.481" y="14.6301" width="79.0382" height="54.8699" rx="6.5" stroke="#DF49D9" stroke-width="3"/>
<path d="M78.4489 47.441L46.0837 26.3313C40.6687 22.7994 43.1697 14.387 49.6347 14.387L114.365 14.387C120.83 14.387 123.331 22.7994 117.916 26.3313L85.5509 47.441C83.3928 48.8486 80.607 48.8486 78.4489 47.441Z" stroke="#DF49D9" stroke-width="3"/>
</svg>
